<svg viewBox="0 0 200 520" xmlns="http://www.w3.org/2000/svg" fill="none" stroke="#3a3128" stroke-width="0.8" stroke-linecap="round" stroke-linejoin="round" opacity="0.85">
  <g>
    <!-- 底座 -->
    <rect x="38" y="380" width="124" height="140"/>
    <line x1="38" y1="395" x2="162" y2="395"/>
    <line x1="38" y1="500" x2="162" y2="500"/>
    <!-- 底部门洞（拱形） -->
    <path d="M60,520 L60,455 Q60,440 75,440 Q90,440 90,455 L90,520"/>
    <path d="M110,520 L110,455 Q110,440 125,440 Q140,440 140,455 L140,520"/>
    <!-- 中段 -->
    <rect x="50" y="260" width="100" height="120"/>
    <line x1="50" y1="275" x2="150" y2="275"/>
    <line x1="50" y1="365" x2="150" y2="365"/>
    <!-- 中段窗（哥特拱） -->
    <path d="M70,360 L70,300 Q70,288 80,288 Q90,288 90,300 L90,360"/>
    <path d="M110,360 L110,300 Q110,288 120,288 Q130,288 130,300 L130,360"/>
    <line x1="80" y1="300" x2="80" y2="360" opacity="0.5"/>
    <line x1="120" y1="300" x2="120" y2="360" opacity="0.5"/>
    <!-- 钟面段 -->
    <rect x="55" y="155" width="90" height="105"/>
    <line x1="55" y1="170" x2="145" y2="170"/>
    <!-- 钟面 -->
    <circle cx="100" cy="215" r="36"/>
    <circle cx="100" cy="215" r="32"/>
    <!-- 钟面刻度 -->
    <line x1="100" y1="183" x2="100" y2="188" stroke-width="1.2"/>
    <line x1="132" y1="215" x2="127" y2="215" stroke-width="1.2"/>
    <line x1="100" y1="247" x2="100" y2="242" stroke-width="1.2"/>
    <line x1="68" y1="215" x2="73" y2="215" stroke-width="1.2"/>
    <line x1="122" y1="193" x2="119" y2="196" opacity="0.6"/>
    <line x1="122" y1="237" x2="119" y2="234" opacity="0.6"/>
    <line x1="78" y1="237" x2="81" y2="234" opacity="0.6"/>
    <line x1="78" y1="193" x2="81" y2="196" opacity="0.6"/>
    <!-- 钟面中心 + 指针 -->
    <circle cx="100" cy="215" r="2" fill="#3a3128" stroke="none"/>
    <line x1="100" y1="215" x2="100" y2="190" stroke-width="1.5"/>
    <line x1="100" y1="215" x2="120" y2="215" stroke-width="1.5"/>
    <!-- 钟面段小窗 -->
    <path d="M65,155 L65,178 L75,178 L75,155 Z"/>
    <path d="M125,155 L125,178 L135,178 L135,155 Z"/>
    <!-- 尖顶（哥特） -->
    <path d="M68,155 L100,75 L132,155"/>
    <path d="M75,135 L100,90 L125,135" opacity="0.5"/>
    <!-- 顶尖 -->
    <line x1="100" y1="75" x2="100" y2="50"/>
    <line x1="95" y1="55" x2="105" y2="55"/>
    <line x1="97" y1="48" x2="103" y2="48"/>
    <!-- 顶部四角小尖塔 -->
    <path d="M55,155 L60,140 L65,155"/>
    <path d="M135,155 L140,140 L145,155"/>
    <!-- 塔身装饰线 -->
    <line x1="50" y1="280" x2="50" y2="360" opacity="0.4"/>
    <line x1="150" y1="280" x2="150" y2="360" opacity="0.4"/>
  </g>
</svg>
