<svg viewBox="0 0 280 280" xmlns="http://www.w3.org/2000/svg" fill="none" stroke="#3a3128" stroke-width="0.8" stroke-linecap="round" stroke-linejoin="round" opacity="0.85">
  <g>
    <!-- 中央大百合 -->
    <g transform="translate(140,105)">
      <path d="M0,-38 C-10,-32 -14,-20 -10,-8 C-18,-2 -22,8 -14,16 C-6,18 0,12 0,6 C0,12 6,18 14,16 C22,8 18,-2 10,-8 C14,-20 10,-32 0,-38"/>
      <path d="M0,-30 C-5,-22 -6,-12 -3,-4 C-7,0 -8,6 -4,10 C-1,11 0,8 0,4 C0,8 1,11 4,10 C8,6 7,0 3,-4 C6,-12 5,-22 0,-30" opacity="0.6"/>
      <line x1="0" y1="16" x2="0" y2="48"/>
      <line x1="-3" y1="20" x2="-9" y2="30"/>
      <line x1="3" y1="20" x2="9" y2="30"/>
      <circle cx="0" cy="0" r="3" fill="#3a3128" stroke="none"/>
    </g>
    <!-- 左上小花 -->
    <g transform="translate(75,75) scale(0.65)">
      <path d="M0,-38 C-10,-32 -14,-20 -10,-8 C-18,-2 -22,8 -14,16 C-6,18 0,12 0,6 C0,12 6,18 14,16 C22,8 18,-2 10,-8 C14,-20 10,-32 0,-38"/>
      <line x1="0" y1="16" x2="0" y2="48"/>
      <circle cx="0" cy="0" r="3" fill="#3a3128" stroke="none"/>
    </g>
    <!-- 右上小花 -->
    <g transform="translate(210,90) scale(0.7)">
      <path d="M0,-38 C-10,-32 -14,-20 -10,-8 C-18,-2 -22,8 -14,16 C-6,18 0,12 0,6 C0,12 6,18 14,16 C22,8 18,-2 10,-8 C14,-20 10,-32 0,-38"/>
      <line x1="0" y1="16" x2="0" y2="48"/>
      <circle cx="0" cy="0" r="3" fill="#3a3128" stroke="none"/>
    </g>
    <!-- 左下小花苞 -->
    <g transform="translate(50,150) scale(0.5)">
      <path d="M0,-30 C-8,-25 -10,-15 -8,-5 C-12,0 -14,8 -8,12 C-3,13 0,9 0,5 C0,9 3,13 8,12 C14,8 12,0 8,-5 C10,-15 8,-25 0,-30"/>
      <line x1="0" y1="12" x2="0" y2="35"/>
    </g>
    <!-- 茎与叶 -->
    <path d="M140,153 Q132,190 118,235"/>
    <path d="M75,124 Q68,160 58,200"/>
    <path d="M210,138 Q220,175 232,220"/>
    <path d="M50,180 Q44,200 38,225"/>
    <!-- 叶片 -->
    <path d="M118,200 Q90,188 68,200 Q90,215 118,200"/>
    <path d="M162,200 Q190,188 212,200 Q190,215 162,200"/>
    <path d="M58,180 Q30,170 18,185 Q30,198 58,180"/>
    <path d="M232,200 Q260,190 272,205 Q260,220 232,200"/>
    <!-- 叶脉 -->
    <line x1="93" y1="200" x2="93" y2="200" opacity="0.4"/>
    <path d="M93,200 L86,194 M93,200 L86,206" opacity="0.5"/>
    <path d="M187,200 L194,194 M187,200 L194,206" opacity="0.5"/>
  </g>
</svg>
